<svg xmlns="http://www.w3.org/2000/svg" xmlns:xlink="http://www.w3.org/1999/xlink" width="40" zoomAndPan="magnify" viewBox="0 0 30 30.000001" height="40" preserveAspectRatio="xMidYMid meet" version="1.0"><defs><clipPath id="dd5f2d3820"><path d="M 0.484375 0 L 29.515625 0 L 29.515625 29.03125 L 0.484375 29.03125 Z M 0.484375 0 " clip-rule="nonzero"/></clipPath><clipPath id="08a29a2d8a"><path d="M 15 0 C 6.984375 0 0.484375 6.5 0.484375 14.515625 C 0.484375 22.53125 6.984375 29.03125 15 29.03125 C 23.015625 29.03125 29.515625 22.53125 29.515625 14.515625 C 29.515625 6.5 23.015625 0 15 0 " clip-rule="nonzero"/></clipPath></defs><g clip-path="url(#dd5f2d3820)"><g clip-path="url(#08a29a2d8a)"><rect x="-3" width="36" fill="#115ef6" y="-3" height="36.000001" fill-opacity="1"/></g></g><path fill="#ffffff" d="M 15.210938 17.914062 C 19.394531 15.929688 22.472656 15.363281 24.449219 16.214844 C 24.9375 16.425781 25.277344 16.742188 25.46875 17.171875 C 25.65625 17.597656 25.652344 18.042969 25.453125 18.507812 C 25.253906 18.972656 24.589844 19.605469 23.460938 20.410156 C 22.332031 21.21875 21.324219 21.875 20.441406 22.382812 C 19.980469 22.636719 19.5625 22.683594 19.1875 22.519531 C 18.8125 22.359375 18.578125 22.097656 18.488281 21.734375 C 18.398438 21.371094 18.433594 21.003906 18.589844 20.636719 C 18.945312 19.8125 19.785156 19.074219 21.113281 18.417969 L 21.089844 18.367188 C 20.683594 18.234375 19.375 18.589844 17.171875 19.433594 C 14.96875 20.277344 13.066406 21.0625 11.460938 21.789062 C 9.855469 22.519531 8.050781 23.464844 6.039062 24.632812 C 5.449219 24.984375 5.027344 25.105469 4.769531 24.996094 C 4.515625 24.886719 4.210938 24.660156 3.855469 24.316406 C 3.503906 23.976562 3.296875 23.75 3.238281 23.640625 C 3.179688 23.53125 3.1875 23.390625 3.257812 23.226562 C 3.328125 23.058594 3.460938 22.886719 3.648438 22.707031 C 3.839844 22.527344 4.148438 22.289062 4.578125 21.996094 C 5.011719 21.699219 5.679688 21.210938 6.585938 20.53125 C 7.492188 19.847656 8.886719 18.824219 10.773438 17.460938 C 12.65625 16.101562 13.785156 15.273438 14.164062 14.988281 C 14.957031 14.394531 15.570312 13.980469 16.007812 13.746094 C 16.835938 13.300781 17.886719 13.351562 19.160156 13.898438 C 19.449219 14.019531 19.515625 14.261719 19.359375 14.617188 C 19.121094 15.175781 18.148438 16.007812 16.445312 17.109375 Z M 15.210938 17.914062 " fill-opacity="1" fill-rule="nonzero"/></svg>