<svg xmlns="http://www.w3.org/2000/svg" xmlns:xlink="http://www.w3.org/1999/xlink" width="1080" zoomAndPan="magnify" viewBox="0 0 810 809.999993" height="1080" preserveAspectRatio="xMidYMid meet" version="1.0"><defs><g/><clipPath id="32ea6f1efb"><path d="M 405 0 C 181.324219 0 0 181.324219 0 405 C 0 628.675781 181.324219 810 405 810 C 628.675781 810 810 628.675781 810 405 C 810 181.324219 628.675781 0 405 0 " clip-rule="nonzero"/></clipPath></defs><g clip-path="url(#32ea6f1efb)"><rect x="-81" width="972" fill="#115ef6" y="-80.999999" height="971.999992" fill-opacity="1"/></g><g fill="#ffffff" fill-opacity="1"><g transform="translate(100.341474, 687.948224)"><g><path d="M 310.59375 -188.1875 C 427.28125 -243.5 513.191406 -259.296875 568.328125 -235.578125 C 581.941406 -229.722656 591.398438 -220.832031 596.703125 -208.90625 C 602.015625 -196.976562 601.882812 -184.535156 596.3125 -171.578125 C 590.738281 -158.628906 572.195312 -140.921875 540.6875 -118.453125 C 509.175781 -95.984375 481.117188 -77.644531 456.515625 -63.4375 C 443.628906 -56.382812 431.953125 -55.109375 421.484375 -59.609375 C 411.023438 -64.109375 404.53125 -71.425781 402 -81.5625 C 399.476562 -91.707031 400.429688 -101.925781 404.859375 -112.21875 C 414.710938 -135.132812 438.148438 -155.757812 475.171875 -174.09375 L 474.59375 -175.515625 C 463.207031 -179.242188 426.769531 -169.332031 365.28125 -145.78125 C 303.789062 -122.238281 250.671875 -100.3125 205.921875 -80 C 161.171875 -59.695312 110.734375 -33.269531 54.609375 -0.71875 C 38.179688 9.125 26.394531 12.507812 19.25 9.4375 C 12.113281 6.375 3.613281 0.0664062 -6.25 -9.484375 C -16.113281 -19.035156 -21.863281 -25.34375 -23.5 -28.40625 C -25.132812 -31.46875 -24.953125 -35.320312 -22.953125 -39.96875 C -20.953125 -44.613281 -17.300781 -49.441406 -12 -54.453125 C -6.695312 -59.460938 1.945312 -66.078125 13.9375 -74.296875 C 25.9375 -82.515625 44.59375 -96.140625 69.90625 -115.171875 C 95.21875 -134.203125 134.148438 -162.722656 186.703125 -200.734375 C 239.265625 -238.753906 270.816406 -261.785156 281.359375 -269.828125 C 303.410156 -286.328125 320.5625 -297.847656 332.8125 -304.390625 C 355.914062 -316.878906 385.238281 -315.484375 420.78125 -300.203125 C 428.75 -296.773438 430.59375 -290.082031 426.3125 -280.125 C 419.59375 -264.507812 392.5 -241.328125 345.03125 -210.578125 Z M 310.59375 -188.1875 "/></g></g></g></svg>